<?xml version="1.0" encoding="UTF-8"?> <svg xmlns="http://www.w3.org/2000/svg" xmlns:xlink="http://www.w3.org/1999/xlink" width="638" height="521" viewBox="0 0 638 521"><defs><linearGradient id="prefix__d" x1="76.011%" x2="16.738%" y1="-218.125%" y2="50%"><stop offset="0%" stop-color="#5D6B7F"></stop><stop offset="100%" stop-color="#303A49"></stop><stop offset="100%" stop-color="#293240"></stop></linearGradient><linearGradient id="prefix__e" x1="233.097%" x2="35.125%" y1="-4.587%" y2="57.622%"><stop offset="0%" stop-color="#5D6B7F"></stop><stop offset="100%" stop-color="#303A49"></stop><stop offset="100%" stop-color="#303949"></stop></linearGradient><path id="prefix__f" d="M0 0L0 61 64.217 61z"></path><path id="prefix__h" d="M0 17.232L5 0 10 17.232z"></path><radialGradient id="prefix__a" cx="50%" cy="50%" r="44.674%" fx="50%" fy="50%" gradientTransform="matrix(-.21534 .96302 -1.07954 -.3779 1.147 .207)"><stop offset="0%" stop-color="#7A8AB1" stop-opacity=".588"></stop><stop offset="100%" stop-color="#202938" stop-opacity=".023"></stop></radialGradient><ellipse id="prefix__b" cx="77.097" cy="116.552" rx="77.097" ry="76.988"></ellipse></defs><g fill="none" fill-rule="evenodd"><g transform="translate(1 24)"><ellipse cx="315.35" cy="231.5" fill="url(#prefix__a)" opacity=".45" rx="289.65" ry="231.5"></ellipse><mask id="prefix__c" fill="#fff"><use xlink:href="#prefix__b"></use></mask><ellipse cx="77.097" cy="116.552" stroke="#FFF" rx="76.597" ry="76.488"></ellipse><g fill="#D9DDE0" mask="url(#prefix__c)" opacity=".2"><g><path d="M6.435 161.374L118.52 579.678l-1.034.277L5.401 161.651l1.034-.277zm3.103-.831l112.084 418.304-1.034.277L8.504 160.82l1.034-.277zm3.103-.832l112.084 418.304-1.034.277L11.607 159.99l1.034-.278zm3.103-.831l112.084 418.304-1.034.277L14.71 159.157l1.034-.277zm130.323-34.92L258.15 542.264l-1.034.277-112.084-418.304 1.034-.277zm-3.103.831l112.084 418.304-1.034.277L141.93 125.07l1.034-.278zm-3.103.832l112.084 418.304-1.034.277L138.827 125.9l1.034-.277zm-3.103.831l112.084 418.304-1.034.277-112.084-418.304 1.034-.277zm-3.103.832L245.74 545.59l-1.034.277-112.084-418.304 1.034-.277zm-3.103.831l112.084 418.304-1.034.277-112.084-418.304 1.034-.277zm-3.103.832l112.085 418.303-1.035.278-112.084-418.304 1.034-.277zm-3.103.831l112.085 418.304-1.035.277-112.084-418.304 1.034-.277zm-3.102.831l112.084 418.304-1.035.277L120.21 130.89l1.035-.278zm-3.103.832l112.084 418.304-1.035.277L117.106 131.72l1.035-.277zm-3.103.831l112.084 418.304-1.034.277-112.085-418.304 1.035-.277zm-3.103.832L224.019 551.41l-1.034.277L110.9 133.383l1.035-.277zm-3.103.831l112.084 418.304-1.034.277-112.085-418.304 1.035-.277zm-3.103.832l112.084 418.303-1.034.278-112.084-418.304 1.034-.277zm-3.103.831L214.71 553.904l-1.034.277-112.084-418.304 1.034-.277zm-3.103.831l112.084 418.304-1.034.277L98.489 136.71l1.034-.278zm-3.103.832l112.084 418.304-1.034.277L95.386 137.54l1.034-.277zm-3.103.831l112.084 418.304-1.034.277L92.283 138.371l1.034-.277zm-3.103.832L202.298 557.23l-1.034.277L89.18 139.203l1.034-.277zm-3.103.831l112.084 418.304-1.034.277L86.077 140.034l1.034-.277zm-3.103.832l112.085 418.303-1.035.278L82.974 140.866l1.034-.277zm-3.103.831L192.99 559.724l-1.035.277L79.871 141.697l1.034-.277zm-3.103.831l112.085 418.304-1.035.277L76.768 142.53l1.034-.278zm-3.102.832l112.084 418.304-1.035.277L73.665 143.36l1.035-.277zm-3.103.831L183.68 562.218l-1.034.277L70.562 144.191l1.035-.277zm-3.103.832L180.578 563.05l-1.034.277L67.459 145.023l1.035-.277zm-3.103.831l112.084 418.304-1.034.277L64.356 145.854l1.035-.277zm-3.103.832l112.084 418.303-1.034.278L61.254 146.686l1.034-.277zm-3.103.831l112.084 418.304-1.034.277L58.15 147.517l1.034-.277zm-3.103.831l112.084 418.304-1.034.277L55.048 148.35l1.034-.278zm-3.103.832l112.084 418.304-1.034.277L51.945 149.18l1.034-.277zm-3.103.831L161.96 568.038l-1.034.277L48.842 150.011l1.034-.277zm-3.103.832L158.857 568.87l-1.034.277L45.74 150.843l1.034-.277zm-3.103.831l112.084 418.304-1.034.277L42.636 151.674l1.034-.277zm-3.103.832l112.085 418.303-1.035.278L39.533 152.506l1.034-.277zm-3.103.831L149.55 571.364l-1.035.277L36.43 153.337l1.034-.277zm-3.103.831l112.085 418.304-1.035.277L33.327 154.17l1.034-.278zm-3.102.832l112.084 418.304-1.035.277L30.224 155l1.035-.277zm-3.103.831L140.24 573.858l-1.035.277L27.121 155.831l1.035-.277zm-3.103.832L137.137 574.69l-1.034.277L24.018 156.663l1.035-.277zm-3.103.831l112.084 418.304-1.034.277L20.915 157.494l1.035-.277zm-3.103.832L130.93 576.352l-1.034.278L17.813 158.326l1.034-.277zM148.718 122.667l112.084 418.304-1.034.277-112.084-418.304 1.034-.277zm3.103-.831l112.084 418.303-1.034.278-112.084-418.304 1.034-.277zm3.103-.832l112.084 418.304-1.034.277-112.085-418.304 1.035-.277zm3.103-.831L270.11 538.477l-1.034.277L156.992 120.45l1.035-.277zm130.323-34.92l112.084 418.304-1.034.277L287.315 85.53l1.035-.277zm-3.103.831L397.33 504.388l-1.034.277L284.213 86.361l1.034-.277zm-3.103.832l112.084 418.303-1.034.278L281.11 87.193l1.034-.277zm-3.103.831l112.084 418.304-1.034.277L278.007 88.024l1.034-.277zm-3.103.831l112.084 418.304-1.034.277L274.904 88.856l1.034-.278zm-3.103.832L384.92 507.714l-1.034.277L271.801 89.687l1.034-.277zm-3.103.831l112.084 418.304-1.034.277L268.698 90.518l1.034-.277zm-3.103.832l112.084 418.304-1.034.277L265.595 91.35l1.034-.277zm-3.103.831l112.085 418.304-1.035.277L262.492 92.181l1.034-.277zm-3.103.832l112.085 418.303-1.035.278L259.39 93.013l1.034-.277zm-3.103.831l112.085 418.304-1.035.277L256.286 93.844l1.034-.277zm-3.102.831l112.084 418.304-1.035.277L253.183 94.676l1.035-.278zm-3.103.832l112.084 418.304-1.034.277L250.08 95.507l1.035-.277zm-3.103.831l112.084 418.304-1.034.277L246.977 96.338l1.035-.277zm-3.103.832l112.084 418.304-1.034.277L243.874 97.17l1.035-.277zm-3.103.831L353.89 516.028l-1.034.277L240.772 98.001l1.034-.277zm-3.103.832l112.084 418.303-1.034.278L237.669 98.833l1.034-.277zm-3.103.831l112.084 418.304-1.034.277L234.566 99.664l1.034-.277zm-3.103.831l112.084 418.304-1.034.277-112.084-418.303 1.034-.278zm-3.103.832l112.084 418.304-1.034.277L228.36 101.327l1.034-.277zm-3.103.831l112.084 418.304-1.034.277-112.084-418.304 1.034-.277zm-3.103.832l112.084 418.304-1.034.277L222.154 102.99l1.034-.277zm-3.103.831L332.17 521.848l-1.035.277-112.084-418.304 1.034-.277zm-3.103.832l112.085 418.303-1.035.278-112.084-418.304 1.034-.277zm-3.103.831l112.085 418.304-1.035.277-112.084-418.304 1.034-.277zm-3.102.831L322.86 524.342l-1.035.277-112.084-418.303 1.035-.278zm-3.103.832l112.084 418.304-1.035.277L206.64 107.147l1.035-.277zm-3.103.831l112.084 418.304-1.034.277-112.085-418.304 1.035-.277zm-3.103.832l112.084 418.304-1.034.277L200.433 108.81l1.035-.277zm-3.103.831l112.084 418.304-1.034.277L197.33 109.641l1.034-.277zm-3.103.832l112.084 418.303-1.034.278-112.084-418.304 1.034-.277zm-3.103.831l112.084 418.304-1.034.277-112.084-418.304 1.034-.277zm-3.103.831L301.14 530.162l-1.034.277-112.084-418.303 1.034-.278zm-3.103.832l112.084 418.304-1.034.277-112.084-418.304 1.034-.277zm-3.103.831l112.084 418.304-1.034.277-112.084-418.304 1.034-.277zm-3.103.832l112.084 418.304-1.034.277L178.713 114.63l1.034-.277zm-3.103.831L288.73 533.488l-1.035.277L175.61 115.461l1.034-.277zm-3.103.832l112.085 418.303-1.035.278-112.084-418.304 1.034-.277zm-3.103.831l112.085 418.304-1.035.277-112.084-418.304 1.034-.277zm-3.102.831L279.42 535.982l-1.035.277-112.084-418.303 1.035-.278zm-3.103.832l112.084 418.304-1.035.277-112.084-418.304 1.035-.277zm-3.103.831l112.084 418.304-1.034.277-112.085-418.304 1.035-.277zM291.134 84.173l112.084 418.304-1.034.277L290.1 84.45l1.034-.277zm3.103-.832L406.32 501.645l-1.034.277L293.202 83.618l1.035-.277zm3.103-.831l112.084 418.304-1.034.277L296.305 82.787l1.035-.277zm3.103-.832l112.084 418.304-1.034.278L299.408 81.956l1.035-.278zm130.323-34.92L542.85 465.063l-1.034.278L429.73 47.036l1.035-.277zm-3.103.832l112.084 418.304-1.034.277L426.628 47.867l1.035-.277zm-3.103.831l112.084 418.304-1.034.277L423.526 48.7l1.034-.278zm-3.103.832L533.54 467.557l-1.034.277L420.423 49.53l1.034-.277zm-3.103.831l112.084 418.304-1.034.277L417.32 50.361l1.034-.277zm-3.103.832L527.335 469.22l-1.034.277L414.217 51.193l1.034-.277zm-3.103.831l112.084 418.304-1.034.277L411.114 52.024l1.034-.277zm-3.103.832L521.13 470.882l-1.034.278L408.011 52.856l1.034-.277zm-3.103.83l112.084 418.305-1.034.277L404.908 53.687l1.034-.277zm-3.103.832l112.085 418.304-1.035.277L401.805 54.52l1.034-.278zm-3.103.832l112.085 418.304-1.035.277L398.702 55.35l1.034-.277zm-3.103.831l112.085 418.304-1.035.277L395.6 56.181l1.034-.277zm-3.102.832L505.615 475.04l-1.035.277L392.496 57.013l1.035-.277zm-3.103.831l112.084 418.304-1.034.277L389.393 57.844l1.035-.277zm-3.103.832l112.084 418.303-1.034.278L386.29 58.676l1.035-.277zm-3.103.83l112.084 418.305-1.034.277L383.187 59.507l1.035-.277zm-3.103.832l112.084 418.304-1.034.277L380.085 60.34l1.034-.278zm-3.103.832L490.1 479.197l-1.034.277L376.982 61.17l1.034-.277zm-3.103.831l112.084 418.304-1.034.277L373.879 62.001l1.034-.277zm-3.103.832L483.894 480.86l-1.034.277L370.776 62.833l1.034-.277zm-3.103.831l112.084 418.304-1.034.277L367.673 63.664l1.034-.277zm-3.103.832l112.084 418.303-1.034.278L364.57 64.496l1.034-.277zm-3.103.83l112.084 418.305-1.034.277L361.467 65.327l1.034-.277zm-3.103.832l112.085 418.304-1.035.277L358.364 66.16l1.034-.278zm-3.103.832L468.38 485.017l-1.035.277L355.261 66.99l1.034-.277zm-3.103.831l112.085 418.304-1.035.277L352.158 67.821l1.034-.277zm-3.102.832L462.174 486.68l-1.035.277L349.055 68.653l1.035-.277zm-3.103.831L459.07 487.511l-1.035.277L345.952 69.484l1.035-.277zm-3.103.831l112.084 418.304-1.034.278L342.849 70.316l1.035-.278zm-3.103.832l112.084 418.304-1.034.277L339.746 71.147l1.035-.277zm-3.103.831l112.084 418.304-1.034.277L336.644 71.978l1.034-.277zm-3.103.832l112.084 418.304-1.034.277L333.54 72.81l1.034-.277zm-3.103.831l112.084 418.304-1.034.277L330.438 73.641l1.034-.277zm-3.103.832L440.453 492.5l-1.034.277L327.335 74.473l1.034-.277zm-3.103.831L437.35 493.331l-1.034.277L324.232 75.304l1.034-.277zm-3.103.831l112.084 418.304-1.034.278L321.13 76.136l1.034-.278zm-3.103.832l112.084 418.304-1.034.277L318.026 76.967l1.034-.277zm-3.103.831l112.085 418.304-1.035.277L314.923 77.798l1.034-.277zm-3.103.832L424.94 496.657l-1.035.277L311.82 78.63l1.034-.277zm-3.103.831l112.085 418.304-1.035.277L308.717 79.461l1.034-.277zm-3.102.832L418.733 498.32l-1.035.277L305.614 80.293l1.035-.277zm-3.103.831L415.63 499.151l-1.035.277L302.511 81.124l1.035-.277zM433.55 46.748l112.084 418.304-1.034.277L432.515 47.025l1.035-.277zm3.103-.832L548.737 464.22l-1.034.277L435.618 46.194l1.035-.278zm3.103-.831L551.84 463.389l-1.034.277L438.72 45.362l1.035-.277zm3.103-.831l112.084 418.303-1.035.278L441.824 44.53l1.035-.277zm130.323-34.92l112.084 418.303-1.034.278L572.147 9.61l1.035-.277zm-3.103.831l112.084 418.304-1.034.277L569.044 10.442l1.035-.277zm-3.103.831L679.06 429.3l-1.034.277L565.94 11.274l1.035-.278zm-3.103.832l112.084 418.304-1.034.277L562.839 12.105l1.034-.277zm-3.103.831l112.084 418.304-1.034.277L559.736 12.936l1.034-.277zm-3.103.832l112.084 418.304-1.034.277L556.633 13.768l1.034-.277zm-3.103.831l112.084 418.304-1.034.277L553.53 14.6l1.034-.277zm-3.103.832l112.084 418.303-1.034.278L550.427 15.43l1.034-.277zm-3.103.831l112.084 418.304-1.034.277L547.324 16.262l1.034-.277zm-3.103.831L657.34 435.12l-1.034.277L544.221 17.094l1.034-.278zm-3.103.832l112.085 418.304-1.035.277L541.118 17.925l1.034-.277zm-3.103.831l112.085 418.304-1.035.277L538.015 18.756l1.034-.277zm-3.103.832l112.085 418.304-1.035.277L534.912 19.588l1.034-.277zm-3.102.831l112.084 418.304-1.035.277L531.81 20.42l1.035-.277zm-3.103.832l112.084 418.303-1.034.278L528.706 21.25l1.035-.277zm-3.103.831l112.084 418.304-1.034.277L525.603 22.082l1.035-.277zm-3.103.831L635.619 440.94l-1.034.277L522.5 22.914l1.035-.278zm-3.103.832l112.084 418.304-1.034.277L519.398 23.745l1.034-.277zm-3.103.831l112.084 418.304-1.034.277L516.295 24.576l1.034-.277zm-3.103.832L626.31 443.435l-1.034.277L513.192 25.408l1.034-.277zm-3.103.831l112.084 418.304-1.034.277L510.089 26.24l1.034-.277zm-3.103.832l112.084 418.303-1.034.278L506.986 27.07l1.034-.277zm-3.103.831l112.084 418.304-1.034.277L503.883 27.902l1.034-.277zm-3.103.831L613.898 446.76l-1.034.277L500.78 28.734l1.034-.278zm-3.103.832l112.085 418.304-1.035.277L497.677 29.565l1.034-.277zm-3.103.831l112.085 418.304-1.035.277L494.574 30.396l1.034-.277zm-3.103.832L604.59 449.255l-1.035.277L491.471 31.228l1.034-.277zm-3.102.831l112.084 418.304-1.035.277L488.368 32.06l1.035-.277zm-3.103.832l112.084 418.303-1.035.278L485.265 32.89l1.035-.277zm-3.103.831L595.28 451.749l-1.034.277L482.162 33.722l1.035-.277zm-3.103.831L592.178 452.58l-1.034.277L479.059 34.554l1.035-.278zm-3.103.832l112.084 418.304-1.034.277L475.957 35.385l1.034-.277zm-3.103.831l112.084 418.304-1.034.277L472.854 36.216l1.034-.277zm-3.103.832l112.084 418.304-1.034.277L469.75 37.048l1.034-.277zm-3.103.831l112.084 418.304-1.034.277L466.648 37.88l1.034-.277zm-3.103.832l112.084 418.303-1.034.278L463.545 38.71l1.034-.277zm-3.103.831L573.56 457.569l-1.034.277L460.442 39.542l1.034-.277zm-3.103.831L570.457 458.4l-1.034.277L457.34 40.374l1.034-.278zm-3.103.832l112.085 418.304-1.035.277L454.236 41.205l1.034-.277zm-3.103.831l112.085 418.304-1.035.277L451.133 42.036l1.034-.277zm-3.103.832L561.15 460.895l-1.035.277L448.03 42.868l1.034-.277zm-3.102.831l112.084 418.304-1.035.277L444.927 43.7l1.035-.277z" transform="translate(-42.832 -105.86)"></path></g></g></g><g transform="rotate(90 318.5 318.5)"><path stroke="#4D525C" stroke-linecap="square" d="M.535 575.929L520.465 575.929M.535 61.019L520.465 61.019"></path><ellipse cx="460.021" cy="59.948" stroke="#585D67" rx="59.41" ry="59.448"></ellipse></g><path stroke="#4D525C" stroke-linecap="square" d="M0.655 62.5L637.345 62.5"></path><rect width="450" height="263" x="155.5" y="87.5" fill="#293240" stroke="#414A5C" rx="9"></rect><rect width="67" height="101" x="347" y="350" fill="url(#prefix__d)" rx="9" transform="matrix(1 0 0 -1 0 801)"></rect><rect width="16" height="67" x="373" y="362" fill="#363F4C" opacity=".486" rx="7.5"></rect><rect width="188" height="9" x="286.5" y="449.5" fill="#293240" stroke="#414A5C" rx="4.5"></rect><path fill="url(#prefix__e)" d="M165 96H596V341H165z"></path><path stroke="#585D67" d="M38.5 396.5H124.5V429.5H38.5z"></path><path stroke="#585D67" d="M38.5 437.5H124.5V449.5H38.5z" transform="matrix(1 0 0 -1 0 887)"></path><path stroke="#585D67" d="M183.5 144.5H354.5V153.5H183.5zM183.5 162.5H282.5V171.5H183.5zM183.5 181.5H282.5V190.5H183.5zM183.5 199.5H282.5V208.5H183.5z"></path><path stroke="#979797" d="M499.38 144.5c-20.414 0-38.895 8.28-52.267 21.695-13.355 13.398-21.613 31.917-21.613 52.425 0 20.401 8.27 38.871 21.639 52.241 13.37 13.37 31.84 21.639 52.241 21.639 5.147 0 10.17-.526 15.02-1.53-33.304-29.958-46.159-67.897-38.549-113.822.083-.501.168-1.001.255-1.5.226.445.454.9.685 1.357 10.261 20.312 21.957 34.943 35.105 43.875 12.811 8.703 26.997 11.982 42.557 9.84-6.405-5.851-10.683-12.182-12.846-18.984-2.254-7.093-2.212-14.704.14-22.833.104-.36.211-.716.322-1.07.19.311.385.627.583.945 8.742 14.082 16.41 21.276 23.09 21.276 2.893 0 5.147-.795 6.74-2.425-2.613-17.934-11.67-33.779-24.747-45.108-12.959-11.228-29.863-18.021-48.355-18.021z" opacity=".39"></path><path stroke="#4B505A" d="M423.5 144.5H575.5V296.5H423.5z"></path><path stroke="#4D525C" stroke-linecap="square" d="M0.655 457.5L637.345 457.5"></path><g transform="translate(183 236)"><mask id="prefix__g" fill="#fff"><use xlink:href="#prefix__f"></use></mask><use fill="#FFF" opacity=".047" xlink:href="#prefix__f"></use><g fill="#D9DDE0" mask="url(#prefix__g)" opacity=".2"><g><path d="M6.084 161.403L118.26 580.055l-1.029.276L5.054 161.68l1.03-.276zm3.087-.828L121.35 579.228l-1.03.276L8.143 160.85l1.03-.276zm3.088-.827l112.178 418.653-1.03.275L11.23 160.024l1.03-.276zm3.088-.827l112.178 418.652-1.03.276L14.318 159.196l1.029-.275zm129.687-34.75l112.178 418.653-1.03.275-112.177-418.652 1.03-.276zm-3.087.827l112.177 418.653-1.029.276-112.178-418.653 1.03-.276zm-3.088.828l112.177 418.652-1.029.276L137.83 126.102l1.029-.276zm-3.088.827L247.95 545.306l-1.03.275L134.742 126.93l1.03-.276zm-3.088.827l112.178 418.653-1.03.276-112.177-418.653 1.03-.276zm-3.088.828L241.773 546.96l-1.03.276-112.177-418.652 1.03-.276zm-3.087.827l112.177 418.653-1.029.276L125.478 129.41l1.03-.276zm-3.088.828l112.178 418.652-1.03.276-112.177-418.653 1.029-.275zm-3.088.827L232.51 549.443l-1.03.275-112.177-418.652 1.03-.276zm-3.088.827L229.422 550.27l-1.03.276-112.177-418.653 1.03-.276zm-3.087.828l112.177 418.652-1.03.276-112.177-418.652 1.03-.276zm-3.088.827l112.177 418.653-1.029.275L110.04 133.548l1.03-.276zm-3.088.827l112.178 418.653-1.03.276-112.177-418.653 1.029-.276zm-3.088.828l112.178 418.652-1.03.276-112.177-418.652 1.03-.276zm-3.088.827l112.178 418.653-1.03.276L100.777 136.03l1.03-.276zm-3.087.828l112.177 418.652-1.03.276L97.689 136.857l1.03-.275zm-3.088.827l112.177 418.653-1.029.275L94.6 137.685l1.03-.276zm-3.088.827L204.72 556.89l-1.03.276L91.513 138.512l1.029-.276zm-3.088.828l112.178 418.652-1.03.276L88.426 139.34l1.03-.275zm-3.088.827l112.178 418.653-1.03.275L85.338 140.167l1.03-.276zm-3.087.827l112.177 418.653-1.03.276L82.25 140.994l1.03-.276zm-3.088.828l112.177 418.652-1.029.276L79.161 141.822l1.03-.276zm-3.088.827l112.178 418.653-1.03.276L76.074 142.649l1.029-.276zm-3.088.828l112.178 418.652-1.03.276L72.987 143.476l1.03-.275zm-3.088.827L183.105 562.68l-1.03.275L69.899 144.304l1.03-.276zm-3.087.827l112.177 418.653-1.03.276L66.81 145.13l1.03-.276zm-3.088.828l112.177 418.652-1.029.276L63.723 145.958l1.029-.275zm-3.088.827l112.178 418.653-1.03.275L60.635 146.786l1.029-.276zm-3.088.827L170.754 565.99l-1.03.276L57.548 147.613l1.03-.276zm-3.088.828l112.178 418.652-1.03.276L54.46 148.441l1.03-.276zm-3.087.827l112.177 418.653-1.029.276L51.371 149.268l1.03-.276zm-3.088.828L161.49 568.472l-1.029.276L48.284 150.095l1.029-.275zm-3.088.827L158.403 569.3l-1.03.275L45.196 150.923l1.029-.276zm-3.088.827l112.178 418.653-1.03.276L42.109 151.75l1.03-.276zm-3.088.828l112.178 418.652-1.03.276L39.02 152.577l1.03-.275zm-3.087.827l112.177 418.653-1.029.275L35.932 153.405l1.03-.276zm-3.088.827L146.05 572.61l-1.029.276L32.845 154.232l1.029-.276zm-3.088.828l112.178 418.652-1.03.276L29.757 155.06l1.029-.276zm-3.088.827l112.178 418.653-1.03.276L26.67 155.887l1.03-.276zm-3.088.828L136.788 575.09l-1.03.276L23.582 156.714l1.03-.275zm-3.087.827L133.7 575.918l-1.029.276L20.493 157.542l1.03-.276zm-3.088.827l112.177 418.653-1.029.276L17.406 158.369l1.029-.276zM147.673 122.663L259.85 541.316l-1.03.276-112.177-418.653 1.03-.276zm3.087-.827l112.178 418.652-1.03.276-112.177-418.652 1.03-.276zm3.088-.828l112.178 418.653-1.03.276L152.82 121.284l1.03-.276zm3.088-.827l112.178 418.653-1.03.275-112.177-418.652 1.029-.276zm129.687-34.75l112.178 418.653-1.03.276L285.595 85.707l1.03-.276zm-3.087.828L395.713 504.91l-1.03.276L282.507 86.535l1.03-.276zm-3.088.827L392.625 505.74l-1.029.276L279.418 87.362l1.03-.276zm-3.088.828l112.178 418.652-1.03.276L276.331 88.189l1.029-.275zm-3.088.827L386.45 507.394l-1.03.275L273.244 89.017l1.03-.276zm-3.088.827l112.178 418.653-1.03.276L270.156 89.844l1.03-.276zm-3.087.828l112.177 418.652-1.03.276L267.068 90.671l1.03-.275zm-3.088.827l112.177 418.653-1.029.275L263.98 91.5l1.029-.276zm-3.088.827l112.178 418.653-1.03.276L260.892 92.326l1.029-.276zm-3.088.828L371.011 511.53l-1.03.276L257.805 93.154l1.03-.276zm-3.088.827l112.178 418.653-1.03.276L254.717 93.98l1.03-.276zm-3.087.828l112.177 418.652-1.03.276L251.629 94.808l1.03-.275zm-3.088.827l112.177 418.653-1.029.275L248.541 95.636l1.029-.276zm-3.088.827L358.66 514.84l-1.03.276L245.453 96.463l1.029-.276zm-3.088.828l112.178 418.652-1.03.276L242.366 97.29l1.03-.275zm-3.088.827l112.178 418.653-1.03.275L239.278 98.118l1.03-.276zm-3.087.827l112.177 418.653-1.029.276L236.189 98.945l1.03-.276zm-3.088.828l112.177 418.652-1.029.276L233.102 99.773l1.029-.276zm-3.088.827l112.178 418.653-1.03.276L230.014 100.6l1.029-.276zm-3.088.828l112.178 418.652-1.03.276-112.177-418.653 1.03-.275zm-3.088.827L337.045 520.63l-1.03.276-112.177-418.652 1.03-.276zm-3.087.827L333.957 521.46l-1.029.276L220.75 103.082l1.03-.276zm-3.088.828l112.177 418.652-1.029.276-112.177-418.653 1.029-.275zm-3.088.827l112.178 418.653-1.03.275-112.177-418.652 1.029-.276zm-3.088.827l112.178 418.653-1.03.276-112.177-418.653 1.03-.276zm-3.088.828l112.178 418.652-1.03.276L208.4 106.392l1.03-.276zm-3.087.827l112.177 418.653-1.029.276-112.178-418.653 1.03-.276zm-3.088.828L315.43 526.423l-1.029.276-112.177-418.653 1.029-.275zm-3.088.827L312.343 527.25l-1.03.276-112.177-418.652 1.03-.276zm-3.088.827l112.178 418.653-1.03.276L196.049 109.7l1.03-.276zm-3.088.828l112.178 418.652-1.03.276L192.96 110.528l1.03-.275zm-3.087.827l112.177 418.653-1.029.275-112.178-418.652 1.03-.276zm-3.088.827L299.992 530.56l-1.03.276-112.177-418.653 1.029-.276zm-3.088.828l112.178 418.652-1.03.276-112.177-418.652 1.03-.276zm-3.088.827l112.178 418.653-1.03.275L180.61 113.838l1.03-.276zm-3.088.827l112.178 418.653-1.03.276-112.177-418.653 1.03-.276zm-3.087.828L287.64 533.869l-1.029.276-112.178-418.652 1.03-.276zm-3.088.827l112.178 418.653-1.03.276L171.346 116.32l1.029-.276zm-3.088.828l112.178 418.652-1.03.276-112.177-418.653 1.03-.275zm-3.088.827l112.178 418.653-1.03.275L165.17 117.975l1.03-.276zm-3.087.827L275.289 537.18l-1.03.276-112.177-418.653 1.03-.276zm-3.088.828L272.2 538.006l-1.029.276L158.994 119.63l1.03-.276zM289.394 84.137L401.57 502.789l-1.029.276L288.365 84.413l1.029-.276zm3.088-.827l112.177 418.652-1.029.276L291.452 83.585l1.03-.275zm3.087-.828l112.178 418.653-1.03.276L294.54 82.758l1.03-.276zm3.088-.827l112.178 418.652-1.03.276L297.629 81.931l1.03-.276zm129.688-34.75l112.177 418.653-1.029.276L427.315 47.18l1.03-.276zm-3.088.828l112.177 418.652-1.029.276L424.228 48.008l1.029-.275zm-3.088.827l112.178 418.652-1.03.276L421.14 48.836l1.03-.276zm-3.088.827L531.26 468.04l-1.03.276L418.053 49.663l1.03-.276zm-3.088.828l112.178 418.652-1.03.276L414.965 50.49l1.03-.275zm-3.087.827l112.177 418.653-1.029.275L411.876 51.318l1.03-.276zm-3.088.827l112.178 418.653-1.03.276L408.79 52.145l1.029-.276zm-3.088.828l112.178 418.652-1.03.276L405.701 52.973l1.03-.276zm-3.088.827L515.82 472.177l-1.03.275L402.614 53.8l1.03-.276zm-3.088.827l112.178 418.653-1.03.276L399.526 54.627l1.03-.276zm-3.087.828L509.644 473.83l-1.029.276L396.437 55.455l1.03-.276zm-3.088.827L506.557 474.66l-1.03.276L393.35 56.282l1.029-.276zm-3.088.828L503.47 475.486l-1.03.276L390.262 57.109l1.03-.275zm-3.088.827l112.178 418.653-1.03.275L387.175 57.937l1.03-.276zm-3.087.827l112.177 418.653-1.03.276L384.087 58.764l1.03-.276zm-3.088.828l112.177 418.652-1.029.276L380.998 59.592l1.03-.276zm-3.088.827l112.178 418.653-1.03.275L377.911 60.42l1.029-.276zm-3.088.827L488.03 479.623l-1.03.276L374.823 61.246l1.03-.276zm-3.088.828L484.942 480.45l-1.03.276L371.736 62.074l1.03-.276zm-3.087.827l112.177 418.653-1.03.276L368.648 62.9l1.03-.276zm-3.088.828l112.177 418.652-1.029.276L365.56 63.728l1.03-.275zm-3.088.827l112.178 418.653-1.03.275L362.472 64.556l1.029-.276zm-3.088.827L472.591 483.76l-1.03.276L359.385 65.383l1.03-.276zm-3.088.828l112.178 418.652-1.03.276L356.297 66.21l1.03-.275zm-3.087.827l112.177 418.653-1.03.275L353.209 67.038l1.03-.276zm-3.088.827l112.177 418.653-1.029.276L350.12 67.865l1.03-.276zm-3.088.828L460.24 487.069l-1.03.276L347.033 68.693l1.029-.276zm-3.088.827l112.178 418.653-1.03.276L343.946 69.52l1.03-.276zm-3.088.828l112.178 418.652-1.03.276L340.858 70.347l1.03-.275zm-3.087.827l112.177 418.653-1.03.275L337.77 71.175l1.03-.276zm-3.088.827L447.888 490.38l-1.029.276L334.682 72.002l1.029-.276zm-3.088.828l112.178 418.652-1.03.276L331.594 72.83l1.029-.275zm-3.088.827l112.178 418.653-1.03.275L328.507 73.657l1.03-.276zm-3.088.827l112.178 418.653-1.03.276L325.419 74.484l1.03-.276zm-3.087.828l112.177 418.652-1.029.276L322.33 75.312l1.03-.276zm-3.088.827l112.177 418.653-1.029.276L319.243 76.139l1.029-.276zm-3.088.828l112.178 418.652-1.03.276L316.155 76.966l1.029-.275zm-3.088.827L426.274 496.17l-1.03.276L313.068 77.794l1.03-.276zm-3.088.827l112.178 418.653-1.03.276L309.98 78.62l1.03-.276zm-3.087.828l112.177 418.652-1.029.276L306.891 79.448l1.03-.275zm-3.088.827L417.01 498.653l-1.029.275L303.804 80.276l1.029-.276zm-3.088.827L413.923 499.48l-1.03.276L300.716 81.103l1.029-.276zM431.115 46.68l112.178 418.653-1.03.276L430.087 46.957l1.03-.276zm3.088-.827l112.178 418.653-1.03.276L433.174 46.129l1.029-.276zm3.088-.827l112.177 418.653-1.029.275L436.261 45.302l1.03-.276zm3.088-.827L552.556 462.85l-1.03.276L439.35 44.474l1.03-.275zm129.687-34.75l112.178 418.653-1.03.275L569.037 9.725l1.029-.276zm-3.088.827L679.156 428.93l-1.03.276L565.95 10.552l1.03-.276zm-3.088.828l112.178 418.652-1.03.276L562.862 11.38l1.03-.276zm-3.087.827L672.98 430.584l-1.03.275L559.774 12.207l1.03-.276zm-3.088.827l112.177 418.653-1.029.276L556.686 13.034l1.029-.276zm-3.088.828l112.178 418.652-1.03.276L553.598 13.862l1.029-.276zm-3.088.827l112.178 418.653-1.03.276L550.51 14.689l1.03-.276zm-3.088.828L660.63 433.893l-1.03.276L547.423 15.516l1.03-.275zm-3.087.827L657.54 434.721l-1.029.275L544.334 16.344l1.03-.276zm-3.088.827l112.177 418.653-1.029.276L541.247 17.17l1.029-.276zm-3.088.828l112.178 418.652-1.03.276L538.16 18l1.029-.276zm-3.088.827l112.178 418.653-1.03.275L535.072 18.826l1.03-.276zm-3.088.827L645.19 438.03l-1.03.276L531.984 19.653l1.03-.276zm-3.087.828l112.177 418.652-1.029.276L528.895 20.481l1.03-.276zm-3.088.827l112.177 418.653-1.029.276L525.808 21.308l1.029-.276zm-3.088.828l112.178 418.652-1.03.276L522.72 22.135l1.029-.275zm-3.088.827L632.84 441.34l-1.03.275L519.633 22.963l1.03-.276zm-3.088.827l112.178 418.653-1.03.276L516.545 23.79l1.03-.276zm-3.087.828l112.177 418.652-1.029.276L513.456 24.617l1.03-.275zm-3.088.827l112.177 418.653-1.029.275L510.37 25.445l1.029-.276zm-3.088.827L620.488 444.65l-1.03.276L507.281 26.272l1.029-.276zm-3.088.828L617.4 445.476l-1.03.276L504.194 27.1l1.03-.276zm-3.088.827l112.178 418.653-1.03.276L501.106 27.927l1.03-.276zm-3.087.828L611.224 447.13l-1.029.276L498.017 28.754l1.03-.275zm-3.088.827l112.177 418.653-1.029.275L494.93 29.582l1.029-.276zm-3.088.827L605.05 448.786l-1.03.276L491.842 30.409l1.03-.276zm-3.088.828l112.178 418.652-1.03.276L488.755 31.236l1.03-.275zm-3.088.827l112.178 418.653-1.03.275L485.667 32.064l1.03-.276zm-3.087.827l112.177 418.653-1.029.276L482.578 32.89l1.03-.276zm-3.088.828l112.178 418.652-1.03.276L479.491 33.72l1.029-.276zm-3.088.827L589.61 452.923l-1.03.276L476.403 34.546l1.03-.276zm-3.088.828L586.522 453.75l-1.03.276L473.316 35.373l1.03-.275zm-3.087.827l112.177 418.652-1.03.276L470.228 36.201l1.03-.276zm-3.088.827l112.177 418.653-1.029.276L467.14 37.028l1.03-.276zm-3.088.828l112.178 418.652-1.03.276L464.052 37.855l1.029-.275zm-3.088.827L574.171 457.06l-1.03.275L460.964 38.683l1.03-.276zm-3.088.827l112.178 418.653-1.03.276L457.877 39.51l1.03-.276zm-3.087.828l112.177 418.652-1.03.276L454.789 40.338l1.03-.276zm-3.088.827l112.177 418.653-1.029.276L451.7 41.165l1.03-.276zm-3.088.828L561.82 460.369l-1.03.276L448.613 41.992l1.029-.275zm-3.088.827l112.178 418.652-1.03.276L445.525 42.82l1.03-.276zm-3.088.827l112.178 418.653-1.03.276L442.438 43.647l1.03-.276z" transform="translate(-51.148 -162.667)"></path></g></g></g><circle cx="329.5" cy="185.5" r="25" stroke="#585D67"></circle><path stroke="#585D67" d="M330 159L330 185.486 351 199M329.5 186L329.5 211"></path><g transform="translate(130 250)"><path fill="#303949" d="M0 17.232H10V139.064H0z"></path><path fill="#1C2534" d="M2.222 17.232H7.7780000000000005V139.064H2.222z"></path><mask id="prefix__i" fill="#fff"><use xlink:href="#prefix__h"></use></mask><use fill="#434E60" xlink:href="#prefix__h"></use><path fill="#1C2534" d="M2.463 5.344L5 0 7.621 5.344z" mask="url(#prefix__i)"></path></g><circle cx="92.5" cy="266.5" r="14" stroke="#303949"></circle><circle cx="92.5" cy="301.5" r="14" stroke="#303949"></circle><circle cx="92.5" cy="335.5" r="14" stroke="#303949"></circle></g></svg> 