<?xml version="1.0" encoding="UTF-8"?> <svg xmlns="http://www.w3.org/2000/svg" width="1480" height="485" viewBox="0 0 1480 485"><g fill="none" fill-rule="evenodd"><path fill="#EA0000" d="M0 0H1480V485H0z"></path><g fill="#FFF"><path d="M29.5 0v27.5H49v2H29.5V49h-2V29.5H0v-2h27.5V0h2zM1245 0v27.5h-19.5v2h19.5V49h2V29.5h27.5v-2H1247V0h-2zM29.5 365v-27.5H49v-2H29.5V316h-2v19.5H0v2h27.5V365h2zM1245 365v-27.5h-19.5v-2h19.5V316h2v19.5h27.5v2H1247V365h-2z" transform="translate(103.5 60)"></path></g><path fill="#FFF" d="M1227 109c82.947 0 151.512 61.58 162.472 141.517-3.747 3.975-9.097 5.961-16.055 5.961-15.055 0-32.478-15.81-52.268-47.433-10.32 35.39-.425 66.274 29.685 92.65-71.597 10.853-130.308-28.712-176.134-118.695-17.193 102.925 12.785 187.592 89.936 254H1227c-90.575 0-164-73.425-164-164s73.425-164 164-164z" opacity=".185"></path></g></svg> 