<?xml version="1.0" encoding="UTF-8"?> <svg xmlns="http://www.w3.org/2000/svg" width="171" height="40" viewBox="0 0 171 40"><g fill="none" fill-rule="evenodd"><path fill="#EA0000" fill-rule="nonzero" d="M70.299 15.189c1.068 0 2.097.193 3.085.58.989.387 1.885.91 2.69 1.568.804.658 1.494 1.429 2.069 2.313.574.883.977 1.816 1.206 2.797.046.185.072.39.078.615.006.226.009.396.009.511 0 .543-.11 1.008-.328 1.395-.218.387-.494.702-.827.944-.334.243-.699.419-1.095.528-.397.11-.779.165-1.147.165h-8.93c.127.416.328.785.604 1.109.23.277.543.531.94.762.396.231.91.346 1.542.346.333 0 .652-.052.957-.155.304-.104.606-.217.905-.338.299-.122.606-.234.922-.338.316-.104.658-.156 1.026-.156.54 0 1.011.09 1.414.269.402.179.776.441 1.12.788l1.431 1.438c-1.092 1.19-2.298 2.081-3.62 2.676-1.322.595-2.672.892-4.051.892-1.288 0-2.5-.245-3.638-.736-1.138-.49-2.13-1.16-2.974-2.01-.845-.848-1.514-1.842-2.008-2.98-.495-1.137-.742-2.347-.742-3.629 0-1.281.247-2.491.742-3.629.494-1.137 1.163-2.13 2.008-2.98.845-.848 1.836-1.518 2.974-2.01 1.138-.49 2.35-.735 3.638-.735zm28.38-6.375v24.824h-4.464c-.08-.103-.15-.23-.207-.38-.058-.128-.115-.292-.173-.494-.057-.203-.097-.448-.12-.737l-.138.104c-.15.208-.362.416-.638.624-.276.208-.589.395-.94.563-.35.167-.724.306-1.12.416-.397.11-.785.164-1.164.164h-.12c-1.265 0-2.454-.248-3.57-.745-1.114-.496-2.088-1.172-2.921-2.026-.834-.855-1.491-1.848-1.974-2.98-.483-1.132-.724-2.333-.724-3.604 0-1.281.244-2.491.732-3.629.489-1.137 1.155-2.13 2-2.98.845-.848 1.833-1.518 2.965-2.01 1.133-.49 2.336-.735 3.612-.735.62 0 1.221.112 1.802.338.58.225 1.089.493 1.525.805V8.814h5.638zm-41.24 6.41c1 0 2.258.305 3.776.917l-.397 2.287c-.08.45-.233.826-.457 1.126-.224.3-.491.54-.801.72-.31.178-.65.305-1.018.38-.367.075-.74.113-1.12.113-.391 0-.764.052-1.12.156-.357.104-.673.24-.949.407-.276.167-.509.358-.698.572-.19.213-.308.43-.354.65v11.086h-5.637v-18.19h4.413c.138.15.245.324.32.52.074.197.129.381.163.555.046.208.063.415.052.623.16-.323.39-.606.69-.849.298-.242.626-.441.982-.597.356-.156.724-.275 1.103-.355.38-.081.73-.122 1.052-.122zm32.31 5.682c-.505 0-.976.095-1.413.285-.437.19-.822.454-1.155.789-.333.335-.595.724-.784 1.169-.19.445-.285.915-.285 1.412 0 .496.095.967.285 1.412.19.444.45.831.784 1.16.333.33.718.59 1.155.78.437.19.908.286 1.414.286.724 0 1.376-.194 1.956-.58.58-.387 1.02-.893 1.32-1.516v-3.084c-.3-.624-.74-1.132-1.32-1.524-.58-.393-1.232-.59-1.956-.59zm-19.502-.641c-.655 0-1.201.135-1.638.407-.437.271-.787.568-1.052.892-.298.38-.534.808-.706 1.282.069-.046.149-.093.24-.139.081-.034.173-.07.277-.104.103-.034.218-.052.345-.052h5.93c-.207-.427-.465-.808-.776-1.143-.264-.289-.612-.552-1.043-.788-.43-.237-.957-.355-1.577-.355z"></path><path fill="#414141" fill-rule="nonzero" d="M106.62 8.814c.21.21.402.449.577.717.14.234.27.502.393.805.122.304.183.642.183 1.016v5.601c.175-.245.423-.472.743-.682.32-.21.667-.388 1.04-.534.372-.146.748-.263 1.127-.35.378-.088.707-.132.987-.132 1.095 0 2.088.199 2.98.596.89.396 1.656.957 2.297 1.68.64.724 1.136 1.602 1.485 2.635.35 1.032.525 2.185.525 3.457v10.275h-5.714v-10.03c0-.455-.05-.867-.149-1.234-.099-.368-.236-.68-.41-.937-.175-.256-.38-.455-.612-.595-.233-.14-.484-.21-.752-.21-.407 0-.815.053-1.223.158-.407.105-.783.245-1.127.42-.343.175-.626.382-.847.621-.222.24-.338.487-.35.744v11.063h-5.714V8.814h4.561zM129.77 14.915c1.297 0 2.521.25 3.672.747 1.15.498 2.155 1.178 3.014 2.04.858.86 1.536 1.868 2.032 3.022.497 1.155.745 2.382.745 3.683 0 1.3-.248 2.528-.745 3.682-.496 1.154-1.174 2.162-2.032 3.023-.859.862-1.863 1.541-3.014 2.04-1.15.497-2.375.746-3.671.746-1.297 0-2.52-.249-3.671-.747-1.151-.498-2.156-1.177-3.014-2.039-.859-.86-1.536-1.869-2.033-3.023-.496-1.154-.745-2.382-.745-3.682 0-1.3.249-2.528.745-3.683.497-1.154 1.174-2.162 2.033-3.023.858-.861 1.863-1.54 3.014-2.039 1.15-.498 2.374-.747 3.67-.747zm-.034 5.8c-.503 0-.979.097-1.428.29-.45.194-.842.46-1.174.8-.333.34-.596.736-.789 1.187-.193.451-.29.928-.29 1.432 0 .504.097.982.29 1.433.193.451.456.844.789 1.178.332.333.724.597 1.174.79.45.194.925.29 1.428.29.502 0 .978-.096 1.428-.29.45-.193.844-.457 1.183-.79.338-.334.604-.727.797-1.178.193-.451.29-.929.29-1.433s-.097-.981-.29-1.432c-.193-.451-.459-.847-.797-1.187-.34-.34-.733-.606-1.183-.8-.45-.193-.926-.29-1.428-.29zM144.425 15.14c.141.148.25.32.326.516.077.195.133.379.168.55.047.207.065.414.053.62.164-.32.4-.602.705-.843.306-.241.641-.44 1.006-.594.364-.155.74-.273 1.129-.353.388-.08.747-.12 1.076-.12 1.023 0 2.31.303 3.863.912l-.406 2.273c-.082.448-.238.82-.467 1.12-.23.298-.503.536-.82.714-.318.178-.665.304-1.041.379-.377.074-.759.112-1.147.112-.4 0-.782.051-1.146.155-.365.103-.688.238-.97.404-.283.167-.521.356-.715.569-.194.212-.315.427-.362.645V33.22h-5.768V15.14h4.516zM158.379 15.173c.287.31.485.716.595 1.22.109.505.14 1.009.094 1.513.138-.39.377-.765.716-1.126.34-.36.739-.679 1.198-.954.46-.275.963-.495 1.509-.662.546-.166 1.1-.249 1.664-.249 1.08 0 2.043.195 2.888.585.845.39 1.56.94 2.147 1.65.586.71 1.034 1.572 1.344 2.586.31 1.015.466 2.146.466 3.395v10.09h-5.638v-9.832c0-.642-.06-1.155-.181-1.538-.12-.384-.276-.676-.466-.877-.19-.2-.393-.332-.612-.395-.218-.063-.42-.095-.603-.095-.495 0-.969.057-1.423.172-.454.115-.853.278-1.198.49-.345.212-.62.467-.828.765-.207.298-.31.636-.31 1.014V33.22h-5.638V15.173h4.276z"></path><path fill="#EA0000" d="M19.6 0c9.937 0 18.147 7.394 19.428 16.98-.444.432-1.062.647-1.854.647-1.802 0-3.888-1.896-6.258-5.69-1.235 4.246-.05 7.95 3.554 11.114-8.571 1.302-15.6-3.444-21.086-14.237-2.025 12.145 1.416 22.17 10.322 30.077-1.323.283-2.697.431-4.105.431C8.776 39.322 0 30.546 0 19.722V19.6C0 8.776 8.776 0 19.6 0z"></path></g></svg> 